<svg width="25" height="50" viewBox="0 0 25 50" fill="none" xmlns="http://www.w3.org/2000/svg">
<path d="M13.7623 0.171625C11.2377 0.594966 9.05637 1.75057 7.64706 3.40961C6.88725 4.30206 6.06618 5.91533 5.67402 7.27689C5.35539 8.37529 5.34314 8.53547 5.29412 12.2654L5.2451 16.1327H0V25.0572H5.26961V50H16.5441V25.0572H20.2819C23.7377 25.0572 24.0196 25.0458 24.0196 24.8627C24.0196 24.5767 24.8652 16.8307 24.9387 16.4416L25 16.1327H16.5441V13.1808C16.5441 10.3547 16.5564 10.2059 16.826 9.7254C17.3284 8.78718 17.451 8.7643 21.3848 8.69565L24.8162 8.63844L24.8529 4.3135L24.8775 0L19.7672 0.0114416C16.1397 0.0228833 14.3873 0.0686499 13.7623 0.171625Z" fill="white"/>
</svg>
