<svg width="50" height="50" viewBox="0 0 50 50" fill="none" xmlns="http://www.w3.org/2000/svg">
<path d="M13.4957 0.00625303C13.4363 0.0125061 13.2236 0.0343917 13.0267 0.0531507C9.77175 0.353296 6.62941 1.8509 4.2406 4.23955C1.8643 6.61258 0.416634 9.63904 0.0445556 13.0094C-0.0148519 13.5628 -0.0148519 36.4364 0.0445556 36.9898C0.529196 41.3669 2.86485 45.2 6.5231 47.6262C8.46166 48.9112 10.666 49.6959 13.0423 49.9554C13.5988 50.0149 36.4113 50.0149 36.9616 49.9554C38.7564 49.7585 40.2916 49.3176 41.8706 48.5423C44.794 47.1103 47.1109 44.7936 48.5461 41.8672C49.2934 40.3477 49.7186 38.9001 49.9437 37.1305C49.9969 36.699 50 36.1394 50 24.9996C50 13.8598 49.9969 13.3002 49.9437 12.8687C49.6154 10.2737 48.7337 8.01638 47.2579 5.98102C45.7039 3.83623 43.5496 2.12916 41.1045 1.09741C40.0758 0.665948 38.8314 0.312651 37.7433 0.14382C36.7771 -0.00312653 37.5932 0.00625303 25.1739 0C18.8111 0 13.5551 0.00312651 13.4957 0.00625303ZM36.8991 3.93628C38.2342 4.14263 39.2097 4.4459 40.3322 5.00868C42.302 5.99665 43.978 7.66621 44.9785 9.6453C45.5538 10.7833 45.8821 11.837 46.0666 13.1345C46.1198 13.5222 46.1229 14.0568 46.1229 25.0309V36.5208L46.051 36.9742C45.8509 38.2466 45.5288 39.2659 44.9941 40.3195C43.412 43.4554 40.4166 45.5689 36.8678 46.0629C36.4832 46.1161 35.8798 46.1192 25.002 46.1192C14.121 46.1192 13.5207 46.1161 13.1361 46.0629C11.8979 45.891 10.7879 45.5502 9.70922 45.0062C6.80763 43.5555 4.71586 40.8198 4.06863 37.637C3.8654 36.6334 3.88103 37.6589 3.88103 24.9996C3.88103 14.1225 3.88416 13.519 3.93731 13.1345C4.26249 10.799 5.2474 8.75737 6.84828 7.09406C8.38036 5.49954 10.4346 4.40526 12.6045 4.0207C13.505 3.86437 12.8953 3.87062 25.127 3.87688C35.7172 3.88313 36.5802 3.88626 36.8991 3.93628Z" fill="white"/>
<path d="M38.8533 7.72563C37.7871 7.94449 36.9616 8.70736 36.6458 9.76412C36.5333 10.1362 36.5083 10.7365 36.5864 11.121C36.8084 12.2216 37.5901 13.0657 38.6813 13.3752C38.8939 13.4346 39.0034 13.4472 39.4317 13.4472C40.0258 13.4472 40.2478 13.3971 40.7449 13.1501C41.5516 12.7499 42.1332 11.9683 42.2895 11.0741C42.3333 10.8334 42.3333 10.3081 42.2895 10.0674C42.08 8.88244 41.167 7.95074 39.9851 7.72251C39.7006 7.66936 39.1253 7.66936 38.8533 7.72563Z" fill="white"/>
<path d="M23.892 11.5587C20.7903 11.8245 17.8981 13.1345 15.6593 15.2918C14.5212 16.3892 13.6707 17.5397 12.9641 18.9498C12.2168 20.4318 11.8103 21.7855 11.5977 23.4989C11.5196 24.146 11.5196 25.8531 11.5977 26.5003C11.876 28.7326 12.5858 30.6711 13.7864 32.472C14.2836 33.2161 14.8057 33.8507 15.478 34.5229C16.5661 35.611 17.7198 36.4364 19.0768 37.1054C21.4906 38.2904 24.2234 38.725 26.8936 38.3467C32.703 37.5244 37.3743 32.9566 38.303 27.1881C38.4437 26.3221 38.4624 26.0626 38.4624 24.984C38.4624 23.6614 38.3843 22.9767 38.106 21.8262C36.9585 17.0989 33.3096 13.3221 28.6258 12.0121C27.8285 11.7901 26.9186 11.6275 26.0494 11.5556C25.6085 11.5181 24.3391 11.5212 23.892 11.5587ZM25.99 15.4481C28.8978 15.7545 31.4305 17.2959 33.047 19.747C33.3471 20.2035 33.813 21.1165 33.9881 21.5917C34.2539 22.317 34.454 23.1331 34.5447 23.874C34.5978 24.3055 34.5978 25.6937 34.5447 26.1251C34.282 28.2449 33.3659 30.1677 31.9026 31.6809C28.6883 35.0044 23.5418 35.5578 19.6803 32.9941C18.2733 32.0624 17.1476 30.7805 16.4035 29.2673C15.9939 28.4388 15.7594 27.754 15.5905 26.9068C15.4467 26.1939 15.4186 25.8656 15.4186 24.9996C15.4186 24.1335 15.4467 23.8053 15.5905 23.0924C15.7594 22.2483 15.9939 21.5667 16.4035 20.7319C16.8475 19.819 17.3915 19.053 18.1075 18.312C19.6803 16.6924 21.722 15.6951 23.9701 15.4512C24.5111 15.3918 25.4397 15.3918 25.99 15.4481Z" fill="white"/>
</svg>
