<svg width="50" height="50" viewBox="0 0 50 50" fill="none" xmlns="http://www.w3.org/2000/svg">
<path d="M22.5517 0.12207C15.5246 0.738744 9.42563 4.15982 5.00609 9.94481C2.66373 12.9988 1.19055 16.2584 0.4245 20.0318C0.026741 21.9993 -0.135309 26.6684 0.129864 28.68C1.04324 35.5368 5.28599 42.1881 11.2082 46.0056C12.6814 46.96 14.3166 47.8262 14.6701 47.8262C14.9648 47.8262 14.9942 47.7382 15.0826 46.0937C15.2447 43.4214 15.6572 41.2337 17.2482 34.8908C18.0437 31.6752 18.7067 28.8562 18.7067 28.6359C18.7067 28.4304 18.5299 27.7403 18.3236 27.1383C17.9701 26.1105 17.9406 25.8756 18.0143 24.3339C18.1027 22.3517 18.4268 21.2505 19.2665 20.164C21.0932 17.8001 24.4521 17.6973 25.498 20.0025C26.0578 21.2211 25.7485 24.0696 24.7467 26.9034C23.5976 30.1776 23.303 32.1891 23.8481 33.3638C24.3931 34.5677 25.8516 35.4487 27.5605 35.5955C31.0224 35.8892 33.7331 32.982 35.1474 27.4613C36.0755 23.8053 35.8839 20.3549 34.6023 17.6092C33.571 15.3921 31.5675 13.8064 28.7979 12.9988C27.7962 12.7052 27.2953 12.6611 25.336 12.6611C23.4356 12.6611 22.8463 12.7198 21.8003 12.9988C18.2942 13.9385 15.775 15.9794 14.1398 19.2243C13.2117 21.0743 12.8876 22.4545 12.8876 24.701C12.8876 26.7712 13.1233 27.6815 13.9778 28.8121C14.2871 29.2086 14.626 29.7078 14.7291 29.8986C15.1858 30.7502 14.4639 33.3491 13.7273 33.54C12.755 33.7749 10.2801 31.6165 9.38143 29.7518C8.45333 27.8137 8.32074 27.1677 8.32074 24.5541C8.32074 22.572 8.37967 22.014 8.65958 20.9862C9.76446 16.9632 11.989 13.8357 15.3331 11.6186C17.6902 10.0476 20.2093 9.13726 23.2146 8.75551C24.9529 8.54996 28.2234 8.65273 29.7555 8.99044C35.5893 10.2678 40.1709 14.6139 41.3347 20.0025C41.6883 21.6176 41.6883 25.2589 41.3347 27.0355C40.5687 30.9264 38.8745 34.2007 36.4143 36.5499C35.0442 37.842 33.6742 38.6936 32.0389 39.2515C31.0814 39.5746 30.5216 39.6627 29.0189 39.7214C27.3248 39.7801 27.0891 39.7507 26.0136 39.3984C24.6436 38.9285 23.465 38.1944 22.8168 37.3868C22.5664 37.0785 22.2865 36.8142 22.1834 36.8142C22.0802 36.8142 21.7561 37.8714 21.3731 39.4571C20.3861 43.5242 18.9866 47.3858 18.1763 48.2814C17.8964 48.6044 17.9111 49.1183 18.2352 49.2064C19.8115 49.7056 21.491 49.9112 24.4521 49.9846C28.8421 50.0874 31.2582 49.691 34.6023 48.3255C39.0071 46.5195 43.353 42.8341 46.1667 38.5468C49.0836 34.0832 50.3358 29.0764 49.9233 23.4676C49.3488 15.3921 45.386 8.50591 38.7566 4.05704C33.9688 0.841524 28.7537 -0.421191 22.5517 0.12207Z" fill="white"/>
</svg>
