<svg width="50" height="40" viewBox="0 0 50 40" fill="none" xmlns="http://www.w3.org/2000/svg">
<path d="M33.739 0.0284749C29.4688 0.326381 25.7361 3.43037 24.6514 7.59144C24.3485 8.74462 24.2508 10.2438 24.4071 11.3969C24.4755 11.8582 24.4951 12.2714 24.4658 12.3003C24.4365 12.3291 23.8599 12.3003 23.1857 12.233C15.9547 11.5315 9.09505 8.06232 4.25811 2.66158C3.87702 2.23874 3.53501 1.88318 3.49593 1.86396C3.39821 1.82552 2.97803 2.64236 2.67511 3.4592C2.20607 4.75653 2.08882 5.44844 2.09859 7.03407C2.10836 8.31218 2.14745 8.65814 2.37219 9.48458C2.6458 10.5128 3.14415 11.6276 3.74999 12.5501C4.12131 13.1267 5.65545 14.7124 6.19289 15.0871L6.48603 15.2889L6.09517 15.2409C4.67829 15.0679 3.7793 14.8181 2.59694 14.2991C2.28425 14.1646 2.01064 14.0493 1.97156 14.0493C1.88361 14.0493 2.02041 15.5868 2.18653 16.3268C2.74351 18.9215 4.37537 21.2471 6.62284 22.6885C7.55114 23.2747 8.90939 23.8706 9.61294 24.0051L10.0038 24.0724L9.71066 24.1589C9.03642 24.3414 7.36548 24.4375 6.49581 24.3318C6.017 24.2742 5.60659 24.2453 5.58705 24.2742C5.50887 24.351 6.06586 25.6292 6.51535 26.3691C8.02017 28.8773 10.7758 30.7512 13.5704 31.1548C13.9711 31.2125 14.4499 31.2894 14.6355 31.3086L14.958 31.3566L14.3619 31.7891C11.7334 33.6726 8.42081 34.9411 4.97144 35.3928C3.97473 35.5177 0.70125 35.5658 0.261528 35.4504C-0.148879 35.3447 -0.0707065 35.4985 0.45696 35.806C4.08222 37.9874 8.1472 39.3617 12.4467 39.8518C13.9124 40.0247 17.313 40.0536 18.8471 39.8998C23.684 39.4289 28.1399 37.8914 31.941 35.4024C33.5924 34.3165 34.7943 33.3459 36.1917 31.9717C41.6638 26.5901 44.9275 18.9503 44.9373 11.5315V10.0323L45.8069 9.34044C46.9014 8.48516 48.6309 6.71694 49.4322 5.63103C49.7644 5.17936 50.0185 4.79497 49.9989 4.76614C49.9696 4.74692 49.4908 4.90068 48.9143 5.11209C48.3475 5.32351 47.3802 5.62142 46.7743 5.77518C45.6408 6.06347 44.3803 6.2845 44.5171 6.16918C44.5562 6.14035 44.8395 5.92893 45.1425 5.70791C45.8656 5.16975 46.8623 4.1415 47.3704 3.40154C47.8199 2.74807 48.5039 1.39308 48.6114 0.941412L48.6798 0.662726L47.859 1.09517C46.3053 1.92162 44.1164 2.72885 42.7191 2.99792L42.1133 3.11324L41.4586 2.53665C39.4359 0.701166 36.7193 -0.173332 33.739 0.0284749Z" fill="white"/>
</svg>
