<svg width="50" height="44" viewBox="0 0 50 44" fill="none" xmlns="http://www.w3.org/2000/svg">
<path fill-rule="evenodd" clip-rule="evenodd" d="M0 3.15981H7.91551L15.7664 34.2186C16.003 35.1549 16.8488 35.8111 17.8187 35.8111H42.8542V35.81C43.6186 35.7782 44.2298 35.06 44.2298 34.1786C44.2298 33.2972 43.6186 32.6796 42.8542 32.6523V32.6513H18.6435L17.4721 28.0169H43.2818C44.2441 28.0169 45.0852 27.3708 45.329 26.4442L49.9298 8.95991C50.2811 7.62475 49.2692 6.31961 47.8826 6.31961H11.9876L10.7927 1.59253C10.556 0.656277 9.71026 0 8.74038 0H0V3.15981ZM12.7863 9.47942L14.369 15.7409V15.5884H19.3342L18.4157 9.47942H12.7863ZM15.1292 18.7482L16.674 24.8596V24.8571H20.7279L19.8094 18.7482H15.1292ZM22.544 15.5884L21.6254 9.47942H27.6836V15.5884H22.544ZM30.858 15.5884V9.47942H37.1108L36.3071 15.5884H30.858ZM39.5086 15.5884L40.3123 9.47942H46.5116L44.9041 15.5884H39.5086ZM39.0929 18.7482H44.0727L42.4652 24.8571H38.2891L39.0929 18.7482ZM35.8914 18.7482L35.0876 24.8571H30.858V18.7482H35.8914ZM27.6836 18.7482V24.8571H23.9377L23.0191 18.7482H27.6836Z" fill="white"/>
<path d="M23.173 40.3929C23.173 42.1089 21.7992 43.5 20.1044 43.5C18.4097 43.5 17.0359 42.1089 17.0359 40.3929C17.0359 38.6768 18.4097 37.2857 20.1044 37.2857C21.7992 37.2857 23.173 38.6768 23.173 40.3929Z" fill="white"/>
<path d="M42.2193 40.3929C42.2193 42.1089 40.8455 43.5 39.1508 43.5C37.456 43.5 36.0822 42.1089 36.0822 40.3929C36.0822 38.6768 37.456 37.2857 39.1508 37.2857C40.8455 37.2857 42.2193 38.6768 42.2193 40.3929Z" fill="white"/>
</svg>
