<svg width="24" height="12" viewBox="0 0 13 8" fill="none" xmlns="http://www.w3.org/2000/svg">
<path d="M12.5913 1.54688C12.5913 1.65267 12.5506 1.74626 12.4692 1.82764L6.78076 7.51611C6.69938 7.59749 6.60579 7.63818 6.5 7.63818C6.39421 7.63818 6.30062 7.59749 6.21924 7.51611L0.530762 1.82764C0.449382 1.74626 0.408691 1.65267 0.408691 1.54688C0.408691 1.44108 0.449382 1.34749 0.530762 1.26611L1.14111 0.655762C1.22249 0.574382 1.31608 0.533691 1.42188 0.533691C1.52767 0.533691 1.62126 0.574382 1.70264 0.655762L6.5 5.45312L11.2974 0.655762C11.3787 0.574382 11.4723 0.533691 11.5781 0.533691C11.6839 0.533691 11.7775 0.574382 11.8589 0.655762L12.4692 1.26611C12.5506 1.34749 12.5913 1.44108 12.5913 1.54688Z" fill="white"/>
</svg>
