<svg width="24" height="24" viewBox="0 0 24 24" fill="none" xmlns="http://www.w3.org/2000/svg">
<path fill-rule="evenodd" clip-rule="evenodd" d="M23.9898 12.5C23.7344 18.7297 18.7297 23.7344 12.5 23.9898V24H11.5V23.9898C5.27028 23.7344 0.265559 18.7297 0.0102277 12.5H0V11.5H0.0102279C0.265562 5.27028 5.27028 0.26556 11.5 0.0102278V0H12.5V0.0102278C18.7297 0.26556 23.7344 5.27028 23.9898 11.5H24V12.5H23.9898ZM12.7778 22.4716C12.6855 22.4784 12.5929 22.4839 12.5 22.4883V16.5231C13.6815 16.5713 14.8778 16.8139 16.1641 17.26C15.387 18.848 14.2641 20.554 12.7778 22.4716ZM22.4883 11.5C22.3894 9.39102 21.6684 7.44474 20.5046 5.84059C19.4316 6.41486 18.424 6.89852 17.4593 7.28872C18.064 8.7312 18.4095 10.116 18.4845 11.5H22.4883ZM18.4914 12.5H22.4883C22.3896 14.606 21.6704 16.5497 20.5095 18.1526C19.4559 17.5759 18.4645 17.0918 17.5133 16.7022C18.1065 15.269 18.4354 13.8875 18.4914 12.5ZM17.4905 12.5C17.4349 13.7475 17.1347 15.0092 16.5786 16.3455C15.1694 15.8489 13.8358 15.5722 12.5 15.5224V12.5H17.4905ZM17.4829 11.5H12.5V8.47257C13.8115 8.41039 15.1281 8.13054 16.5232 7.64234C17.0913 8.98868 17.4084 10.2546 17.4829 11.5ZM11.5 11.5V8.47765C10.1642 8.42778 8.83062 8.15105 7.42138 7.65445C6.86529 8.9908 6.56513 10.2525 6.50948 11.5H11.5ZM5.50857 11.5C5.56457 10.1125 5.89351 8.73096 6.48673 7.29781C5.53548 6.90818 4.54412 6.42405 3.49049 5.84742C2.32957 7.45027 1.61043 9.39401 1.5117 11.5H5.50857ZM1.5117 12.5H5.51551C5.59046 13.884 5.93599 15.2688 6.54072 16.7113C5.57599 17.1015 4.56835 17.5851 3.49544 18.1594C2.33162 16.5553 1.61057 14.609 1.5117 12.5ZM6.51713 12.5H11.5V15.5274C10.1885 15.5896 8.87189 15.8695 7.47678 16.3577C6.9087 15.0113 6.59159 13.7454 6.51713 12.5ZM11.5 16.5287V22.4883C11.4086 22.484 11.3175 22.4786 11.2267 22.472C9.77805 20.5568 8.67144 18.8529 7.89446 17.2712C9.1642 16.8341 10.3426 16.5885 11.5 16.5287ZM16.1055 6.72879C14.8358 7.16591 13.6574 7.41146 12.5 7.47135V1.5117C12.5914 1.51598 12.6825 1.52144 12.7733 1.52804C14.2219 3.44322 15.3286 5.14711 16.1055 6.72879ZM11.5 7.47689V1.5117C11.4071 1.51605 11.3145 1.52162 11.2222 1.52837C9.73588 3.44597 8.61301 5.15202 7.83592 6.74002C9.12222 7.18607 10.3185 7.42871 11.5 7.47689ZM14.1854 22.2723C16.4304 21.797 18.4105 20.6044 19.8747 18.9456C18.8909 18.4128 17.9741 17.9701 17.1034 17.615C16.3941 19.0832 15.4185 20.616 14.1854 22.2723ZM19.8679 5.04664C18.3997 3.38664 16.4143 2.19473 14.1641 1.72325C15.3722 3.38102 16.3368 4.91345 17.0466 6.37683C17.9311 6.02093 18.8644 5.57813 19.8679 5.04664ZM9.81459 1.72775C7.56962 2.20301 5.58947 3.39561 4.12527 5.0544C5.10909 5.58721 6.02588 6.0299 6.89659 6.38497C7.6059 4.91684 8.58152 3.38405 9.81459 1.72775ZM4.13213 18.9534C5.60029 20.6134 7.58568 21.8053 9.83594 22.2767C8.62777 20.619 7.66319 19.0865 6.95344 17.6232C6.06894 17.9791 5.13559 18.4219 4.13213 18.9534Z" fill="rgba(222,222,222,0.80)"/>
</svg>
