<svg width="51" height="38" viewBox="0 0 51 38" fill="none" xmlns="http://www.w3.org/2000/svg">
<path fill-rule="evenodd" clip-rule="evenodd" d="M6.02161 2.44254L5.94629 2.52107C5.78418 2.68989 5.67798 2.80055 5.66406 2.81445C5.64453 2.84375 6.54297 3.79102 7.65625 4.9043L9.69727 6.94531L9.36523 7.11133C9.17969 7.20898 8.48633 7.64844 7.8125 8.08789C4.53125 10.2266 1.86523 12.9609 0.673828 15.4121C0.126953 16.5449 0.00976562 17.0039 0 17.9805C0 18.8789 0.126953 19.4062 0.585938 20.4121C1.2207 21.7891 2.06055 22.9023 3.71094 24.5527C5.9375 26.7891 8.00781 28.2441 11.084 29.7676C15.3223 31.8574 19.3848 32.8633 24.1211 33.0098C27.2168 33.0977 30.0586 32.7754 33.0371 32.0039L34.3945 31.6426L37.2949 34.543C38.8867 36.1348 40.2148 37.4336 40.2539 37.4336C40.293 37.4336 40.7715 36.9746 41.3379 36.418L42.3535 35.4023L25.0586 18.1074C15.5469 8.5957 7.71484 0.822266 7.66602 0.822266C7.60742 0.832031 7.14844 1.27148 6.64062 1.79883C6.40942 2.03893 6.19238 2.26487 6.02161 2.44254ZM16.2402 13.4883L17.6758 14.9238L17.4316 15.8906C17.1094 17.1504 17.0996 18.7324 17.3828 19.9531C18.0469 22.7363 20.2637 24.9531 23.0469 25.6172C24.2676 25.9004 25.8496 25.8906 27.1094 25.5684L28.0762 25.3242L29.6582 26.9062L31.25 28.498L30.5176 28.8691C27.4609 30.4023 23.8574 30.5293 20.6055 29.2012C14.248 26.623 11.4258 19.1816 14.3457 12.6973C14.502 12.3359 14.6777 12.043 14.7168 12.043C14.7656 12.043 15.4492 12.6875 16.2402 13.4883ZM22.2168 3.06836C20.7031 3.20508 18.7598 3.54688 17.1875 3.94727C16.3574 4.16211 15.6445 4.36719 15.6055 4.40625C15.5664 4.44531 16.25 5.19727 17.1191 6.06641L18.7109 7.6582L19.6387 7.17969C24.1992 4.85547 29.6875 5.71484 33.4766 9.34766C36.9141 12.6484 38.2324 17.4141 36.8555 21.5645C36.6309 22.2676 35.9766 23.6738 35.6348 24.2305C35.5078 24.4355 35.6055 24.543 37.8418 26.7891L40.1758 29.123L40.625 28.8691C41.4746 28.3809 43.5156 26.9941 44.3359 26.3398C46.1426 24.8945 48.0957 22.7168 49.0039 21.1445C49.9414 19.5332 50.2148 18.1172 49.8535 16.7305C49.1602 14.0449 46.2305 10.6855 42.2852 8.06836C38.0371 5.24609 32.9297 3.49805 27.6074 3.06836C26.1816 2.94141 23.5059 2.95117 22.2168 3.06836ZM22.1427 10.6677C22.2235 10.5141 22.5714 10.501 23.0176 10.3926C24.0918 10.1289 25.8496 10.1191 26.9531 10.3828C29.7363 11.0469 31.9531 13.2637 32.6172 16.0469C32.8809 17.1797 32.8809 18.8008 32.6074 19.9531C32.5 20.4219 32.3535 20.8809 32.2949 20.9688C32.1973 21.1055 31.4648 20.4121 27.0117 15.959C23.0316 11.9789 21.9689 10.9981 22.1427 10.6677Z" fill="#CCCCCC" fill-opacity="0.7"/>
</svg>
