<svg width="50" height="50" viewBox="0 0 50 50" fill="none" xmlns="http://www.w3.org/2000/svg">
<rect width="50" height="50" rx="5" fill="white"/>
<path d="M23 8.2C23 7.97909 23.1791 7.8 23.4 7.8H26.6C26.8209 7.8 27 7.97909 27 8.2C27 8.42091 26.8209 8.6 26.6 8.6H23.4C23.1791 8.6 23 8.42091 23 8.2Z" fill="black"/>
<path d="M24.8 42.6C25.5732 42.6 26.2 41.9732 26.2 41.2C26.2 40.4268 25.5732 39.8 24.8 39.8C24.0268 39.8 23.4 40.4268 23.4 41.2C23.4 41.9732 24.0268 42.6 24.8 42.6Z" fill="black"/>
<path fill-rule="evenodd" clip-rule="evenodd" d="M19 5C16.7909 5 15 6.79086 15 9V41C15 43.2091 16.7909 45 19 45H31C33.2091 45 35 43.2091 35 41V9C35 6.79086 33.2091 5 31 5H19ZM31 6.6H19C17.6745 6.6 16.6 7.67452 16.6 9V9.4H33.4V9C33.4 7.67452 32.3255 6.6 31 6.6ZM16.6 38.2V10.2H33.4V38.2H16.6ZM16.6 39V41C16.6 42.3255 17.6745 43.4 19 43.4H31C32.3255 43.4 33.4 42.3255 33.4 41V39H16.6Z" fill="black"/>
<path d="M16 10H34V39H16V10Z" fill="black"/>
</svg>
