<svg width="51" height="32" viewBox="0 0 51 32" fill="none" xmlns="http://www.w3.org/2000/svg">
<path fill-rule="evenodd" clip-rule="evenodd" d="M10.498 4.51563C14.209 2.60157 18.125 1.44922 22.2168 1.06837C23.5059 0.951178 26.1816 0.941412 27.6074 1.06837C32.9297 1.49805 38.0371 3.2461 42.2852 6.06837C46.2305 8.68555 49.1602 12.0449 49.8535 14.7305C50.2148 16.1172 49.9414 17.5332 49.0039 19.1445C47.7539 21.3027 45.3223 23.7539 42.5293 25.6582C37.1289 29.3496 30.7324 31.2051 24.1211 31.0098C19.3848 30.8633 15.3223 29.8574 11.084 27.7676C8.00781 26.2441 5.9375 24.7891 3.71094 22.5527C2.06055 20.9023 1.2207 19.7891 0.585938 18.4121C0.126953 17.4063 0 16.8789 0 15.9805C0.00976562 15.0039 0.126953 14.5449 0.673828 13.4121C2.19727 10.2871 6.01562 6.82032 10.498 4.51563ZM36.709 12.3184C35.2148 8.04102 31.3379 4.75001 26.9531 4.03712C25.3027 3.77344 23.252 3.89063 21.7285 4.33008C18.6816 5.21876 15.9375 7.52344 14.502 10.4043C11.6016 16.2246 13.6523 23.3438 19.1406 26.4883C23.3398 28.8906 28.5156 28.5977 32.373 25.7363C33.3105 25.043 34.6191 23.7148 35.2246 22.8262C37.4805 19.5449 37.9785 15.9609 36.709 12.3184ZM17.3828 14.0469C18.0469 11.293 20.2539 9.0664 22.998 8.39258C24.0918 8.1289 25.8398 8.11914 26.9531 8.38281C29.7363 9.04687 31.9531 11.2637 32.6172 14.0469C32.8809 15.1797 32.8809 16.8203 32.6172 17.9531C31.9531 20.7168 29.7168 22.9531 26.9531 23.6172C25.8203 23.8809 24.1797 23.8809 23.0469 23.6172C20.2637 22.9531 18.0469 20.7363 17.3828 17.9531C17.1191 16.8203 17.1191 15.1797 17.3828 14.0469Z" fill="white"/>
</svg>
