<svg width="50" height="50" viewBox="0 0 50 50" fill="none" xmlns="http://www.w3.org/2000/svg">
<path d="M25 26.4773C31.1912 26.4773 36.2107 20.6025 36.2107 13.3556C36.2107 3.30625 31.1914 0.234131 25 0.234131C18.8084 0.234131 13.7894 3.30625 13.7894 13.3556C13.7895 20.6025 18.8085 26.4773 25 26.4773Z" fill="white"/>
<path d="M49.7549 45.7906L44.099 33.0496C43.8403 32.4666 43.3859 31.983 42.8202 31.6885L34.0426 27.1192C33.849 27.0186 33.6146 27.0382 33.4406 27.1699C30.958 29.0477 28.039 30.0402 24.9995 30.0402C21.9596 30.0402 19.0408 29.0477 16.5582 27.1699C16.3837 27.0382 16.1493 27.0186 15.9557 27.1192L7.17872 31.6885C6.61281 31.983 6.15884 32.4663 5.89989 33.0496L0.243985 45.7906C-0.145956 46.6689 -0.0660371 47.6739 0.457835 48.4796C0.981462 49.2851 1.86766 49.7659 2.82852 49.7659H47.1702C48.131 49.7659 49.0175 49.2849 49.5411 48.4795C50.0647 47.6739 50.1449 46.6686 49.7549 45.7906Z" fill="white"/>
</svg>
